<svg width="25" height="26" viewBox="0 0 25 26" fill="none" xmlns="http://www.w3.org/2000/svg">
<path d="M0 12.7559C0.00070404 15.7908 1.06309 18.7259 2.9962 21.0336C4.92932 23.3414 7.60639 24.8706 10.5463 25.3462V16.4391H7.375V12.7559H10.55V9.95212C10.4799 9.29589 10.5524 8.63197 10.7623 8.00752C10.9722 7.38307 11.3144 6.81339 11.7646 6.33897C12.2147 5.86454 12.7618 5.49699 13.367 5.26243C13.9722 5.02787 14.6206 4.93204 15.2663 4.98176C16.2038 4.99706 17.1413 5.08245 18.0662 5.23665V8.37053H16.4862C16.2177 8.33467 15.9447 8.36079 15.6874 8.44697C15.4301 8.53315 15.1951 8.67718 14.9997 8.86841C14.8043 9.05965 14.6536 9.2932 14.5587 9.55181C14.4638 9.81041 14.427 10.0875 14.4513 10.3625V12.7559H17.915L17.3612 16.4403H14.4513V25.3462C16.8108 24.966 19.014 23.9045 20.8002 22.2872C22.5864 20.67 23.8806 18.5648 24.5297 16.2209C25.1788 13.877 25.1556 11.3926 24.4627 9.0617C23.7699 6.73085 22.4365 4.65121 20.6205 3.069C18.8044 1.48679 16.5817 0.468263 14.2155 0.13402C11.8492 -0.200224 9.43865 0.163808 7.26907 1.18302C5.09948 2.20223 3.26177 3.83393 1.97351 5.88494C0.685242 7.93595 0.000379213 10.3204 0 12.7559Z" fill="white"/>
</svg>
