<svg width="24" height="27" viewBox="0 0 24 27" fill="none" xmlns="http://www.w3.org/2000/svg">
<path fill-rule="evenodd" clip-rule="evenodd" d="M7.05273 0.0790386C8.33236 0.0143706 8.74036 0 12 0C15.2596 0 15.6676 0.0155682 16.9462 0.0790386C18.2247 0.142509 19.0975 0.366452 19.8611 0.690989C20.6607 1.02271 21.3862 1.54125 21.9862 2.21188C22.5971 2.86934 23.0684 3.66452 23.3695 4.54352C23.6662 5.38181 23.8691 6.33985 23.928 7.74099C23.9869 9.14812 24 9.596 24 13.1731C24 16.7514 23.9858 17.1993 23.928 18.604C23.8702 20.0051 23.6662 20.9632 23.3695 21.8015C23.0684 22.6806 22.5963 23.4771 21.9862 24.1355C21.3862 24.8061 20.6607 25.3235 19.8611 25.654C19.0975 25.9797 18.2247 26.2025 16.9484 26.2672C15.6676 26.3318 15.2596 26.3462 12 26.3462C8.74036 26.3462 8.33236 26.3306 7.05273 26.2672C5.77636 26.2037 4.90364 25.9797 4.14 25.654C3.33919 25.3234 2.61362 24.8052 2.01382 24.1355C1.40332 23.4777 0.930889 22.6815 0.629455 21.8027C0.333818 20.9644 0.130909 20.0063 0.072 18.6052C0.0130909 17.1981 0 16.7502 0 13.1731C0 9.5948 0.0141818 9.14692 0.072 7.74338C0.129818 6.33985 0.333818 5.38181 0.629455 4.54352C0.931334 3.66461 1.40413 2.86852 2.01491 2.21068C2.61386 1.54065 3.3387 1.02204 4.13891 0.690989C4.90255 0.366452 5.77527 0.143706 7.05164 0.0790386H7.05273ZM16.8491 2.4502C15.5836 2.38673 15.204 2.37355 12 2.37355C8.796 2.37355 8.41636 2.38673 7.15091 2.4502C5.98036 2.50888 5.34545 2.72324 4.92218 2.90407C4.36255 3.14358 3.96218 3.4274 3.54218 3.88846C3.14405 4.31365 2.83765 4.83127 2.64545 5.40336C2.48073 5.86802 2.28545 6.56499 2.232 7.84997C2.17418 9.23913 2.16218 9.65588 2.16218 13.1731C2.16218 16.6903 2.17418 17.1071 2.232 18.4962C2.28545 19.7812 2.48073 20.4782 2.64545 20.9428C2.83745 21.5141 3.144 22.0326 3.54218 22.4577C3.92945 22.8948 4.40182 23.2314 4.92218 23.4421C5.34545 23.623 5.98036 23.8373 7.15091 23.896C8.41636 23.9595 8.79491 23.9726 12 23.9726C15.2051 23.9726 15.5836 23.9595 16.8491 23.896C18.0196 23.8373 18.6545 23.623 19.0778 23.4421C19.6375 23.2026 20.0378 22.9188 20.4578 22.4577C20.856 22.0326 21.1625 21.5141 21.3545 20.9428C21.5193 20.4782 21.7145 19.7812 21.768 18.4962C21.8258 17.1071 21.8378 16.6903 21.8378 13.1731C21.8378 9.65588 21.8258 9.23913 21.768 7.84997C21.7145 6.56499 21.5193 5.86802 21.3545 5.40336C21.1364 4.78902 20.8778 4.34952 20.4578 3.88846C20.0705 3.45144 19.5989 3.11509 19.0778 2.90407C18.6545 2.72324 18.0196 2.50888 16.8491 2.4502ZM10.4673 17.234C11.3233 17.6252 12.2764 17.678 13.1639 17.3834C14.0514 17.0888 14.8182 16.4651 15.3334 15.6188C15.8485 14.7725 16.0801 13.7561 15.9884 12.7433C15.8968 11.7304 15.4876 10.7839 14.8309 10.0654C14.4123 9.60615 13.906 9.25447 13.3487 9.03572C12.7914 8.81697 12.1968 8.73659 11.6078 8.80036C11.0188 8.86414 10.45 9.07049 9.94233 9.40455C9.43468 9.73861 9.00081 10.1921 8.67197 10.7323C8.34312 11.2725 8.12748 11.8861 8.04056 12.5288C7.95365 13.1715 7.99762 13.8273 8.16932 14.4491C8.34101 15.0709 8.63616 15.6432 9.03351 16.1247C9.43087 16.6063 9.92054 16.9851 10.4673 17.234ZM7.63855 8.38527C8.2113 7.75653 8.89126 7.25778 9.6396 6.91751C10.3879 6.57723 11.19 6.40209 12 6.40209C12.81 6.40209 13.6121 6.57723 14.3604 6.9175C15.1087 7.25778 15.7887 7.75653 16.3615 8.38527C16.9342 9.01402 17.3885 9.76045 17.6985 10.5819C18.0085 11.4034 18.168 12.2839 18.168 13.1731C18.168 14.0623 18.0085 14.9427 17.6985 15.7642C17.3885 16.5857 16.9342 17.3322 16.3615 17.9609C15.2047 19.2307 13.6359 19.9441 12 19.9441C10.3641 19.9441 8.79528 19.2307 7.63855 17.9609C6.48182 16.6911 5.83197 14.9689 5.83197 13.1731C5.83197 11.3773 6.48182 9.65508 7.63855 8.38527ZM19.536 7.41047C19.6779 7.26349 19.7916 7.08674 19.8701 6.8907C19.9487 6.69465 19.9907 6.48328 19.9935 6.26911C19.9964 6.05494 19.9601 5.84232 19.8867 5.64385C19.8134 5.44537 19.7045 5.26506 19.5665 5.1136C19.4285 4.96215 19.2643 4.84262 19.0835 4.76209C18.9027 4.68157 18.709 4.64169 18.5139 4.64481C18.3188 4.64794 18.1263 4.694 17.9477 4.78027C17.7691 4.86655 17.6081 4.99128 17.4742 5.14709C17.2138 5.4501 17.0712 5.85259 17.0768 6.26911C17.0823 6.68563 17.2355 7.08339 17.5038 7.37794C17.7721 7.6725 18.1345 7.84066 18.5139 7.84673C18.8933 7.8528 19.26 7.69631 19.536 7.41047Z" fill="white"/>
</svg>
