<svg width="33" height="26" viewBox="0 0 33 26" fill="none" xmlns="http://www.w3.org/2000/svg">
<path d="M33 3.01836C31.7864 3.52615 30.4828 3.86925 29.1123 4.02434C30.5264 3.22531 31.5843 1.96773 32.0887 0.48625C30.7601 1.23146 29.3061 1.756 27.7897 2.03708C26.77 1.00896 25.4194 0.327498 23.9475 0.098507C22.4756 -0.130483 20.9649 0.105805 19.6498 0.770687C18.3347 1.43557 17.2889 2.49185 16.6746 3.77552C16.0604 5.0592 15.9122 6.49846 16.2529 7.86984C13.5609 7.7422 10.9273 7.08146 8.52312 5.93049C6.11897 4.77952 3.99796 3.16405 2.29776 1.18893C1.71642 2.13589 1.38215 3.23383 1.38215 4.40312C1.3815 5.45576 1.65601 6.49227 2.18132 7.4207C2.70663 8.34912 3.4665 9.14075 4.39351 9.72535C3.31842 9.69305 2.26706 9.41873 1.32692 8.92523V9.00758C1.32681 10.4839 1.86762 11.9149 2.85757 13.0576C3.84753 14.2003 5.22566 14.9843 6.75813 15.2768C5.76081 15.5316 4.71519 15.5692 3.70026 15.3866C4.13263 16.6569 4.97485 17.7677 6.10901 18.5636C7.24317 19.3595 8.61249 19.8005 10.0253 19.825C7.62699 21.6028 4.66512 22.5672 1.61614 22.5629C1.07604 22.5631 0.536401 22.5333 0 22.4737C3.0949 24.3528 6.69758 25.3501 10.377 25.3462C22.8323 25.3462 29.6413 15.6048 29.6413 7.15619C29.6413 6.88171 29.634 6.60448 29.6209 6.32999C30.9454 5.42554 32.0886 4.30554 32.9971 3.02247L33 3.01836Z" fill="white"/>
</svg>
